<?xml version="1.0" standalone="no"?>
<!DOCTYPE svg PUBLIC "-//W3C//DTD SVG 20010904//EN"
 "http://www.w3.org/TR/2001/REC-SVG-20010904/DTD/svg10.dtd">
<svg version="1.0" xmlns="http://www.w3.org/2000/svg"
 width="310.000000pt" height="310.000000pt" viewBox="0 0 310.000000 310.000000"
 preserveAspectRatio="xMidYMid meet">
<metadata>
Created by potrace 1.11, written by Peter Selinger 2001-2013
</metadata>
<g transform="translate(0.000000,310.000000) scale(0.100000,-0.100000)"
fill="#000000" stroke="none">
<path d="M0 2303 c0 -483 4 -793 9 -788 5 6 34 102 65 215 31 113 59 215 63
227 5 13 91 89 193 169 102 81 190 156 196 168 13 24 124 420 124 441 0 12
248 217 368 306 29 21 54 26 195 40 l162 16 -687 2 -688 1 0 -797z"/>
<path d="M1570 3091 c0 -10 355 -246 390 -259 15 -6 116 -6 261 0 l236 10 208
-138 c114 -77 212 -146 216 -154 4 -8 45 -114 90 -235 l83 -220 -23 -85 c-13
-47 -36 -132 -52 -190 -58 -208 -57 -194 -17 -306 83 -229 123 -334 131 -334
4 0 7 432 7 960 l0 960 -765 0 c-421 0 -765 -4 -765 -9z"/>
<path d="M1278 3041 c-64 -3 -119 -8 -122 -11 -10 -11 11 -28 148 -118 99 -66
143 -89 150 -82 14 14 66 201 60 212 -5 8 -40 8 -236 -1z"/>
<path d="M1555 3018 c-2 -7 -10 -35 -18 -63 -8 -27 -20 -69 -27 -93 -8 -26
-10 -46 -4 -52 5 -5 86 -6 187 -3 137 5 177 9 177 19 0 14 -279 204 -299 204
-6 0 -13 -6 -16 -12z"/>
<path d="M1110 2973 c0 -9 17 -54 129 -352 45 -118 83 -217 86 -220 3 -2 9 0
14 5 9 10 101 335 101 358 0 14 -297 216 -318 216 -7 0 -12 -3 -12 -7z"/>
<path d="M855 2864 c-71 -57 -130 -110 -130 -117 0 -13 163 -126 182 -127 7 0
20 26 29 58 8 31 26 93 39 137 34 116 40 155 24 154 -8 0 -72 -47 -144 -105z"/>
<path d="M1057 2953 c-5 -9 -45 -144 -72 -243 -9 -36 -21 -75 -26 -87 -5 -13
-6 -28 -3 -35 5 -15 297 -208 313 -208 6 0 11 7 11 14 0 21 -196 546 -208 558
-5 5 -12 6 -15 1z"/>
<path d="M2120 2791 c-41 -3 -75 -10 -75 -16 0 -15 288 -206 305 -203 15 3 68
160 69 206 1 22 -1 22 -111 20 -62 -1 -147 -4 -188 -7z"/>
<path d="M1631 2769 c-88 -5 -138 -13 -146 -21 -6 -7 -24 -60 -39 -118 -16
-58 -37 -134 -47 -169 -23 -76 -23 -83 -4 -79 8 2 92 65 187 140 264 209 292
232 290 243 -2 13 -76 14 -241 4z"/>
<path d="M2452 2763 c-16 -30 -56 -202 -49 -209 3 -4 88 -2 189 2 137 7 183
12 183 22 0 13 -282 202 -302 202 -7 0 -16 -8 -21 -17z"/>
<path d="M2015 2730 c-7 -11 189 -552 208 -578 6 -7 14 -9 19 -4 12 12 108
364 102 374 -5 7 -249 173 -314 213 -5 3 -12 1 -15 -5z"/>
<path d="M1855 2695 c-157 -120 -435 -348 -435 -357 0 -15 371 1 388 17 8 7
22 44 33 81 58 211 70 259 67 277 -3 18 -8 16 -53 -18z"/>
<path d="M1936 2658 c-8 -29 -24 -87 -35 -128 -11 -41 -27 -99 -35 -128 -8
-30 -13 -59 -10 -65 5 -13 299 -210 321 -215 7 -2 13 2 13 8 0 29 -214 580
-226 580 -7 0 -19 -24 -28 -52z"/>
<path d="M642 2553 c-56 -203 -56 -203 -42 -203 17 0 280 211 280 225 0 14
-163 125 -184 125 -9 0 -27 -48 -54 -147z"/>
<path d="M776 2434 c-80 -64 -146 -123 -146 -131 0 -11 13 -12 63 -8 34 3 172
10 307 16 135 6 246 12 248 14 2 2 1 9 -3 16 -8 13 -305 209 -316 209 -4 0
-73 -52 -153 -116z"/>
<path d="M2555 2519 c-77 -3 -146 -7 -153 -8 -19 -2 -24 -18 -92 -265 -16 -61
-27 -112 -25 -114 9 -9 36 11 263 192 128 103 230 191 227 196 -3 6 -23 9 -43
8 -20 -1 -100 -5 -177 -9z"/>
<path d="M2600 2324 c-272 -217 -280 -224 -280 -234 0 -16 364 -6 389 10 6 3
20 40 31 81 25 93 35 127 60 213 24 80 24 86 7 86 -6 0 -100 -70 -207 -156z"/>
<path d="M2844 2433 c-7 -35 -26 -102 -59 -214 -38 -131 -44 -122 85 -117 61
2 115 9 120 14 10 10 -6 60 -81 260 -33 86 -54 105 -65 57z"/>
<path d="M1550 2297 c-91 -5 -169 -12 -173 -17 -10 -9 63 -208 79 -214 13 -5
282 204 283 220 1 19 -16 20 -189 11z"/>
<path d="M845 2268 c-176 -9 -230 -17 -214 -32 19 -19 312 -206 321 -206 17 1
291 221 296 238 4 14 -89 14 -403 0z"/>
<path d="M1175 2155 c-71 -58 -131 -111 -133 -119 -3 -12 17 -14 130 -10 176
6 238 13 238 26 0 6 -16 56 -36 110 -26 70 -41 98 -53 98 -9 -1 -74 -48 -146
-105z"/>
<path d="M1880 2246 c0 -8 28 -87 61 -175 40 -104 66 -161 76 -161 14 0 148
100 170 128 9 11 10 19 2 28 -15 18 -285 194 -298 194 -6 0 -11 -6 -11 -14z"/>
<path d="M1627 2146 c-177 -142 -163 -123 -139 -192 35 -99 111 -296 117 -302
10 -11 22 13 39 78 10 36 22 79 27 95 5 17 25 89 45 160 72 261 73 265 52 264
-7 0 -71 -47 -141 -103z"/>
<path d="M1816 2223 c-28 -95 -156 -568 -156 -579 0 -27 4 -24 198 130 79 63
112 95 112 110 0 31 -123 349 -137 353 -6 2 -14 -4 -17 -14z"/>
<path d="M600 2188 c0 -35 202 -560 217 -565 7 -3 15 8 19 24 3 15 24 90 45
166 21 77 39 150 39 163 0 19 -26 41 -150 124 -82 55 -154 100 -160 100 -5 0
-10 -6 -10 -12z"/>
<path d="M341 2085 c-72 -58 -131 -112 -131 -119 0 -7 41 -39 91 -71 87 -55
93 -57 105 -40 8 10 14 24 14 31 0 7 18 75 40 151 22 76 40 141 40 146 0 22
-41 -3 -159 -98z"/>
<path d="M535 2168 c-14 -41 -95 -346 -95 -356 0 -14 297 -212 317 -212 19 0
18 6 -38 151 -28 74 -61 163 -73 199 -73 204 -98 255 -111 218z"/>
<path d="M2800 2061 c-23 -4 -34 -11 -33 -21 2 -26 110 -311 121 -322 7 -7 14
-9 17 -6 9 8 95 319 95 341 0 15 -10 17 -82 16 -46 -1 -99 -4 -118 -8z"/>
<path d="M2495 2053 c-137 -3 -175 -8 -175 -22 0 -8 488 -337 517 -348 20 -8
16 18 -18 109 -17 46 -44 119 -60 162 -37 101 -42 106 -93 104 -22 -1 -99 -4
-171 -5z"/>
<path d="M2128 1949 c-49 -39 -88 -75 -88 -80 0 -10 294 -209 310 -209 18 0
11 27 -44 174 -58 153 -73 186 -84 186 -4 -1 -46 -33 -94 -71z"/>
<path d="M1155 1993 c-101 -4 -120 -9 -107 -29 7 -12 475 -322 499 -331 25
-10 12 41 -50 202 l-62 160 -90 1 c-50 0 -135 -1 -190 -3z"/>
<path d="M2290 1978 c0 -7 9 -38 20 -68 12 -30 30 -82 42 -115 36 -103 65
-163 85 -172 10 -6 75 -7 153 -2 74 4 156 8 183 8 31 1 47 5 47 14 -1 12 -489
339 -516 345 -8 2 -14 -3 -14 -10z"/>
<path d="M1011 1913 c0 -10 28 -92 62 -183 l62 -165 175 3 c181 3 220 6 220
21 0 9 -496 341 -511 341 -5 0 -9 -8 -8 -17z"/>
<path d="M167 1913 c-10 -16 -87 -303 -87 -323 0 -11 3 -20 8 -20 13 0 276
215 276 225 0 12 -163 125 -180 125 -7 0 -15 -3 -17 -7z"/>
<path d="M945 1898 c-18 -47 -92 -334 -88 -340 5 -10 158 -11 202 -2 17 4 31
12 31 19 0 24 -122 335 -132 335 -5 0 -11 -6 -13 -12z"/>
<path d="M1847 1725 c-81 -64 -147 -124 -147 -132 0 -13 14 -14 98 -9 53 4
191 11 306 16 115 5 213 13 219 19 6 6 -46 46 -144 112 -84 56 -160 104 -169
106 -9 2 -77 -45 -163 -112z"/>
<path d="M260 1654 c-80 -63 -147 -120 -149 -126 -3 -8 56 -9 215 -5 283 9
414 18 414 29 0 9 -311 218 -326 218 -5 0 -74 -52 -154 -116z"/>
<path d="M2640 1590 c-63 -4 -137 -8 -163 -9 -56 -1 -59 -6 -101 -161 -13 -52
-32 -121 -40 -153 -19 -68 -19 -77 -6 -77 17 0 490 382 490 396 0 9 -11 13
-32 12 -18 -1 -85 -5 -148 -8z"/>
<path d="M1915 1558 c-203 -9 -220 -12 -209 -29 9 -14 306 -209 319 -209 13 0
299 226 303 240 4 12 -130 11 -413 -2z"/>
<path d="M2613 1369 c-268 -213 -260 -206 -248 -218 12 -11 376 6 389 19 8 8
106 351 106 371 0 5 -4 9 -9 9 -5 0 -112 -82 -238 -181z"/>
<path d="M1286 1529 c-76 -4 -142 -11 -146 -16 -8 -9 -100 -343 -100 -362 0
-6 4 -11 10 -11 16 0 475 369 478 385 4 17 -12 17 -242 4z"/>
<path d="M2847 1354 c-29 -103 -45 -180 -40 -185 14 -14 224 2 230 18 3 7 -11
55 -30 105 -19 51 -47 126 -62 166 -15 39 -32 72 -38 72 -7 0 -33 -76 -60
-176z"/>
<path d="M937 1513 c-43 -3 -70 -9 -73 -17 -3 -7 20 -78 51 -158 30 -80 55
-150 55 -155 0 -6 6 -13 14 -16 17 -7 18 -3 71 191 20 73 34 139 31 147 -4 10
-18 14 -43 13 -21 -1 -69 -3 -106 -5z"/>
<path d="M2207 1410 c-75 -61 -137 -114 -137 -119 0 -14 172 -122 189 -119 9
2 22 28 32 63 70 249 78 285 61 285 -4 0 -69 -50 -145 -110z"/>
<path d="M330 1489 c-107 -5 -201 -11 -209 -14 -12 -5 -11 -9 5 -23 45 -42
304 -204 318 -199 23 9 296 229 296 238 0 10 -134 9 -410 -2z"/>
<path d="M1318 1302 c-130 -103 -237 -193 -238 -200 0 -16 369 -5 386 12 12
11 104 332 104 361 0 8 -3 15 -7 15 -5 0 -115 -85 -245 -188z"/>
<path d="M1670 1482 c0 -6 31 -93 69 -194 38 -100 84 -225 103 -276 23 -65 37
-92 48 -90 10 2 30 58 62 173 26 94 48 175 48 180 0 11 -293 208 -316 213 -8
2 -14 -1 -14 -6z"/>
<path d="M0 737 l0 -737 591 0 c404 0 588 3 584 10 -4 6 -97 71 -208 145
l-202 134 -64 173 c-118 317 -78 263 -312 419 l-204 137 -82 218 c-45 119 -87
222 -93 228 -7 7 -10 -219 -10 -727z"/>
<path d="M1607 1453 c-2 -4 -10 -30 -17 -58 -7 -27 -28 -103 -46 -168 -18 -65
-31 -123 -28 -130 5 -13 288 -200 311 -205 7 -2 13 2 12 10 -1 28 -205 552
-216 555 -6 2 -13 0 -16 -4z"/>
<path d="M722 1420 c-96 -69 -252 -202 -252 -214 0 -7 12 -44 26 -82 14 -38
41 -113 61 -166 19 -54 41 -98 48 -98 7 0 33 77 65 193 29 105 60 215 68 242
44 156 42 168 -16 125z"/>
<path d="M816 1432 c-3 -5 -12 -34 -20 -63 -25 -95 -90 -330 -142 -511 -11
-39 33 -14 167 93 109 87 139 116 139 135 0 28 -108 323 -126 342 -7 8 -14 10
-18 4z"/>
<path d="M80 1411 c0 -6 11 -39 24 -73 13 -35 41 -107 61 -160 20 -54 40 -100
45 -103 4 -3 34 15 67 40 104 79 117 91 111 107 -7 16 -261 188 -290 196 -10
2 -18 -1 -18 -7z"/>
<path d="M2035 1239 c-9 -13 -95 -320 -95 -336 0 -7 4 -13 10 -13 12 0 290
220 290 230 0 8 -181 130 -192 130 -4 0 -10 -5 -13 -11z"/>
<path d="M330 1112 c-46 -37 -84 -72 -84 -77 -1 -12 283 -205 301 -205 7 0 13
6 12 13 -1 24 -124 330 -134 334 -6 2 -49 -27 -95 -65z"/>
<path d="M2908 1133 c-94 -4 -98 -5 -98 -26 0 -13 25 -88 55 -167 31 -80 58
-151 61 -159 10 -28 30 12 58 114 54 200 58 216 52 230 -3 8 -11 14 -18 13 -7
-1 -57 -4 -110 -5z"/>
<path d="M3086 1122 c-3 -5 -9 -26 -15 -48 -5 -21 -16 -64 -25 -94 -39 -139
-69 -247 -73 -272 -5 -26 -96 -105 -349 -301 l-61 -48 -219 -10 c-121 -5 -232
-12 -249 -14 -18 -3 -76 -42 -150 -101 -66 -53 -151 -120 -190 -149 l-70 -53
-160 -12 c-88 -6 -162 -14 -164 -16 -2 -2 388 -4 867 -4 l872 0 0 565 c0 311
-2 565 -4 565 -3 0 -7 -4 -10 -8z"/>
<path d="M2453 1113 c-61 -3 -83 -7 -83 -17 0 -12 496 -346 513 -346 13 0 6
24 -48 171 -83 224 -59 199 -189 197 -61 -1 -148 -4 -193 -5z"/>
<path d="M1240 1060 c-63 -4 -125 -8 -137 -9 -13 0 -23 -5 -23 -10 0 -14 282
-201 302 -201 12 0 21 14 28 43 6 23 18 64 26 91 8 27 14 60 14 73 0 26 6 26
-210 13z"/>
<path d="M2335 1028 c13 -47 119 -323 128 -335 6 -9 46 -11 145 -7 252 9 276
16 209 61 -321 213 -462 303 -474 303 -10 0 -12 -6 -8 -22z"/>
<path d="M964 1018 c-145 -110 -264 -212 -261 -221 3 -8 35 -11 108 -9 212 6
494 24 503 32 7 7 -272 202 -310 217 -6 2 -24 -6 -40 -19z"/>
<path d="M1466 947 c-37 -130 -37 -127 32 -127 141 0 302 13 302 25 0 14 -271
195 -292 195 -11 0 -23 -29 -42 -93z"/>
<path d="M2068 930 c-93 -74 -138 -116 -138 -129 0 -28 120 -351 130 -351 13
0 17 10 40 96 32 117 55 199 80 289 55 197 57 205 39 205 -8 -1 -76 -50 -151
-110z"/>
<path d="M2264 1003 c-6 -26 -33 -125 -118 -433 -19 -69 -31 -129 -27 -133 12
-12 301 221 301 241 0 29 -124 345 -137 349 -7 3 -15 -8 -19 -24z"/>
<path d="M1700 789 c-74 -3 -152 -7 -172 -8 -21 0 -38 -6 -38 -11 0 -12 491
-340 509 -340 6 0 11 7 11 15 0 24 -122 339 -134 347 -6 4 -18 7 -26 6 -8 -1
-76 -5 -150 -9z"/>
<path d="M940 758 c-220 -9 -240 -11 -240 -26 0 -12 301 -212 319 -212 16 0
301 228 301 241 0 10 -70 10 -380 -3z"/>
<path d="M1460 713 c0 -26 123 -352 135 -356 14 -5 357 12 373 18 7 3 10 10 6
16 -6 11 -445 303 -491 328 -20 10 -23 9 -23 -6z"/>
<path d="M1193 604 c-85 -67 -143 -122 -143 -132 0 -21 118 -334 130 -346 5
-5 12 -7 15 -4 6 6 165 574 165 589 0 23 -35 0 -167 -107z"/>
<path d="M1395 688 c-10 -30 -155 -560 -155 -569 0 -5 5 -9 11 -9 13 0 299
227 299 236 0 5 -85 232 -125 337 -8 20 -24 22 -30 5z"/>
<path d="M660 685 c0 -10 108 -303 121 -326 5 -10 13 -19 17 -19 4 0 47 32 95
71 70 56 86 73 77 84 -16 19 -271 187 -292 193 -10 2 -18 1 -18 -3z"/>
<path d="M2597 653 c-73 -3 -99 -7 -103 -18 -8 -19 57 -206 73 -212 14 -5 293
213 293 228 0 9 -44 9 -263 2z"/>
<path d="M2287 510 c-75 -61 -137 -115 -137 -121 0 -8 52 -9 178 -4 97 4 180
9 185 12 14 8 7 38 -29 131 -19 50 -41 92 -47 92 -7 0 -74 -50 -150 -110z"/>
<path d="M915 384 c-44 -35 -81 -71 -83 -79 -2 -8 50 -49 134 -106 136 -91
174 -111 174 -91 0 13 -85 244 -110 300 -11 23 -23 42 -27 42 -5 -1 -44 -30
-88 -66z"/>
<path d="M1695 323 c-38 -2 -74 -8 -78 -12 -5 -5 -2 -28 7 -52 32 -94 62 -163
71 -166 12 -4 285 214 285 227 0 10 -125 11 -285 3z"/>
<path d="M1415 185 c-71 -58 -131 -111 -133 -119 -3 -13 18 -15 150 -10 165 5
218 11 218 22 0 4 -16 53 -37 110 -25 70 -42 102 -53 102 -8 -1 -73 -48 -145
-105z"/>
</g>
</svg>
