<?xml version="1.0" encoding="UTF-8"?>
<!-- Generator: Adobe Illustrator 18.1.1, SVG Export Plug-In . SVG Version: 6.00 Build 0)  -->
<svg version="1.1" id="Layer_1" xmlns="http://www.w3.org/2000/svg" xmlns:xlink="http://www.w3.org/1999/xlink" x="0px" y="0px" viewBox="0 327.6 612 133.5" enable-background="new 0 327.6 612 133.5" xml:space="preserve">
<g transform="matrix( 1, 0, 0, 1, -115.5,-1739.45) ">
	<g>
		<g id="Layer0_0_FILL">
			<path fill="#232020" d="M277.3,2073.5c0-0.2,0-0.2,0-0.4h-2.5c0,0.2,0,0.2,0,0.4v117v0.2h2.5v-0.2V2073.5z"/>
		</g>
	</g>
</g>
<g transform="matrix( 0.404205322265625, 0, 0, 0.404205322265625, -143.8,-76.25) ">
	<g>
		<g id="Layer0_0_MEMBER_0_FILL">
			<path fill="#EB2B2D" d="M599.1,1100.8c-0.5-0.2-0.7-0.5-1.1-0.7c-7.9-4.7-17.8-7.2-29.7-7.9c-5.4,0-10.8,0-16.2,0     c-12.6,0-25,0-37.6,0c0,2,0,4.3,0,6.3v0.2c0,6.5,0,12.8,0,19.3v0.2c0,6.5,0,12.8,0,19.3v0.2v0.2c0,6.5,0,13.1-0.2,19.4     c0,6.8,0,13.3,0,20v0.2c0,6.5,0,12.8,0,19.3v0.2c0,6.5,0,12.8,0,19.3v0.2c0,6.8,0,13,0,18.9v0.2c12.6,0,25,0,37.6,0     c5.6,0,11,0,16.6,0c11.3-0.7,20.5-3.2,27.7-7.4c0,0,0,0,0.2,0v-0.2c0,0,0-0.2-0.2-0.2c0.7-0.7,1.6-1.1,2.2-1.1h0.2     c0.7-0.5,1.4-0.9,2-1.4c0,0,0,0,0-0.2h-0.2c0,0,0,0,0-0.2c0.5-0.5,0.7-0.7,0.9-0.5c0,0,0,0,0,0.2c0.7-0.4,1.6-1.1,2.2-1.8     c0,0,0,0,0-0.2h-0.2c-0.2,0-0.5-0.2-0.5-0.7c0.5-0.4,0.7-0.2,0.9,0.5v0.2c0.5-0.4,0.9-0.9,1.4-1.3c0,0,0,0,0-0.2l0,0     c0.2-0.2,0-0.7,0-1.1c0.5,0,0.7,0,0.7,0.4v0.2c0.5-0.2,0.9-0.4,1.1-0.9c0,0,0,0,0-0.2v-0.2c0,0,0-0.2-0.2-0.2     c0.2-0.2,0.5-0.5,0.7-0.2c0,0,0,0,0.2,0c6.3-6.3,10.8-14.2,14.2-23.6c0.2-0.9,0.7-2,0.9-3.1c0,0,0,0-0.2,0     c-0.5,0.7-0.7,0.4-0.5-0.7c0.2,0.2,0.5,0.2,0.7,0.2c0,0,0,0,0,0.2c2.9-9.7,4-20.9,3.8-33.8c0-0.2,0-0.5,0-0.9l0,0     c0-0.7,0-1.3,0-1.8v-0.2c0-0.7,0-1.3-0.2-1.6v0.2c-0.5,0.7-0.5,0.5-0.5-0.9h0.2h0.2c-0.5-5.2-1.1-10.3-2.2-14.8     c-2.2-10.1-6.3-18.7-11.9-25.7c0,0,0,0,0,0.2c-0.5,0.2-0.7,0-0.7-0.4h0.2c0,0,0,0,0-0.2v-0.2c-1.4-1.3-2.7-2.9-4-4.3v0.2     c0.2,1.1,0,0.9-0.7-0.4h0.2v-0.2c-2-2-4.3-3.8-7-5.4c0,0,0,0,0,0.2C599.3,1101.9,598.9,1101.4,599.1,1100.8     C598.9,1100.8,598.9,1100.8,599.1,1100.8 M574.6,1093.1h-0.5c-0.9,0.2-1.4,0-1.6-0.4C573.9,1092.9,574.6,1092.9,574.6,1093.1      M570.1,1092.9C571.2,1093.1,571.2,1093.1,570.1,1092.9C570.1,1093.1,570.1,1092.9,570.1,1092.9 M558.4,1126c0.5,0,0.9,0,1.6,0     h0.2v-0.2c0.7,0,1.4,0,2,0l0,0c5.8,0.2,9.7,2.5,11.7,6.5c0,0,0,0,0.2,0v-0.2c0.5-0.4,0.7-0.2,0.2,0.7c0,0,0,0-0.2,0     c0,0.4,0.2,0.7,0.5,0.9c0,0,0,0,0,0.2c0.7-0.5,0.9,0,0.7,1.1l0,0c2.9,7.2,4.5,16,4.7,25.9v0.2c0.2,0.2,0.2,0.9,0.2,1.6v0.2     c0,0.9,0,2,0,2.9v0.2c0.2,0.7,0.2,1.6,0,2.5l0,0v0.2c0,9-1.1,16.9-3.8,23.4v0.2v0.2h0.2c0.2,0.2,0.2,0.4-0.5,0.7c0,0,0,0-0.2,0     c-2.7,6.3-8.5,9.5-17.5,9.2c0-0.5,0-0.7,0-1.1c0-12.6,0-25,0-37.6C558.4,1150.9,558.4,1138.3,558.4,1126 M514.5,1118.3     C514.5,1118.3,514.5,1118.1,514.5,1118.3c0.2,6.1,0.2,12.4,0.2,18.9v0.2C514.5,1131.1,514.5,1124.8,514.5,1118.3 M557.7,1127.3     c0.2,12.4,0.5,24.8,0.2,37.4c0,12.2,0,24.3,0,36.5c-0.2-12.4-0.5-24.8-0.2-37.4C557.7,1151.6,557.7,1139.5,557.7,1127.3      M610.1,1111.1C611.2,1111.1,611.2,1111.3,610.1,1111.1L610.1,1111.1 M622,1132.5c0.2,0.9,0.5,1.6,0,1.6v-0.2     C622,1133.2,622,1132.7,622,1132.5 M580.9,1166.2C580.6,1166.2,580.6,1166,580.9,1166.2C580.9,1167.8,580.9,1167.8,580.9,1166.2      M625.6,1171C625.9,1172.8,625.9,1172.8,625.6,1171C625.6,1171.2,625.6,1171.2,625.6,1171 M514.3,1198.2     C514.3,1198,514.3,1198,514.3,1198.2c0.2,5.6,0.2,11.7,0.2,18v0.2C514.3,1210.6,514.3,1204.5,514.3,1198.2 M653.8,1268.6     c0,0.7,0,1.1-0.2,1.6c0.7,11.7,7.2,17.8,19.1,18c2,0,3.8-0.2,5.4-0.9c6.8-2.5,10.6-7.7,11.7-15.5v-0.2c0-0.9,0-1.8,0-2.7v-0.2     c-1.4-9.7-7.2-15.1-17.1-16.2h-0.2c-0.7,0-1.3,0-1.8,0h-0.2c-9.2,1.3-14.9,6.3-16.7,15.1c0,0.2,0,0.4,0,0.7     C653.8,1268.4,653.8,1268.4,653.8,1268.6L653.8,1268.6 M684.1,1095.6c-4.5-8.1-9.5-15.5-15.1-22.3c-5.6-7-11.9-13.3-18.7-18.9     s-14.2-10.8-22.3-15.3c-8.1-4.5-16.9-8.3-26.3-11.2c-9.5-2.9-20-4.9-31.5-5.8h-0.2c-0.9,0-1.4,0-1.8-0.2H568c-0.5,0-0.7,0-1.1,0     h-0.2c-0.7,0-1.4,0-1.6-0.2h-0.2c-3.4,0-6.8,0-10.1,0l0,0c-0.7,0-1.4,0-1.8,0h-0.2c-0.7,0-1.3,0-2,0l0,0c-0.7,0-1.4,0-1.8,0     c-10.4,0.7-19.8,2.2-28.1,4.7c-9.9,2.9-18.7,6.5-27,10.8c-8.3,4.3-15.8,9.2-22.7,14.8s-13.5,11.7-19.4,18.4     c-5.9,6.8-11,14-15.8,22.1c-4.5,7.9-8.5,16.4-11.7,25.9c-3.1,9.2-5.4,19.6-7,30.6c0,0.4,0,0.9,0,1.6v0.2v0.2c0,0.7,0,1.1-0.2,1.6     c0,0.2,0,0.4,0,0.7v0.2v0.2c0,0.7,0,1.3-0.2,1.6c0,0.7,0,1.4,0,1.8v0.2c0,0.5,0,1.1,0,1.6v0.2v0.2c0,2,0,4.3-0.2,6.5     c0,1.3,0,2.7,0,4.1v0.2c0.2,0.4,0.2,0.9,0.2,1.6v0.2c0,0.4,0,0.7,0,1.1v0.2c0.2,0.5,0.2,0.9,0.2,1.6v0.2     c0.9,11.7,2.9,22.1,6.1,31.7c3.1,9.4,6.8,18.2,11.2,26.3c4.5,8.1,9.5,15.5,15.3,22.3c5.6,6.8,11.9,13.1,18.9,18.9     c6.8,5.6,14.4,10.8,22.3,15.3c8.1,4.5,16.9,8.1,26.3,11.3c9.2,2.9,19.4,4.9,30.4,5.8c0.5,0,1.1,0,1.6,0l0,0c0.5,0,1.1,0,1.6,0     h0.2c0.7,0,1.3,0,1.8,0l0,0c0.5,0,0.9,0,1.6,0h0.2c0.5,0,0.9,0,1.6,0h0.2c2.7,0,5.4,0,7.9,0h0.2c0.5,0,1.1,0,1.6,0h0.2v-0.2     c0.7,0,1.3,0,2,0h0.2c0.5,0,0.7,0,1.1,0h0.2v-0.2c0.5,0,0.9,0,1.6,0h0.2c11.5-0.9,22-2.9,31.3-6.1c9.5-3.2,18.2-7,26.1-11.5     c2.2-1.3,4.3-2.5,6.5-3.8c0-3.6,0-7,0-10.6c0-12.6,0-25.2-0.2-37.4c-3.8,3.8-7.9,7.4-12.2,10.8c-7.2,5.4-15.1,10.1-23.9,13.7     c-8.8,3.8-18.9,6.1-30.4,7.2l0,0c-0.5,0-1.1,0-1.6,0h-0.2c-0.2,0-0.5,0-0.7,0l0,0c-0.5,0-1.1,0-1.6,0h-0.2c-1.1,0-2,0-3.1,0l0,0     c-1.6,0.2-2.9,0.2-4,0h-0.2c-0.7,0-1.4,0-2,0H555c-0.7,0-1.4,0-1.6-0.2h-0.2c-0.5,0-1.1,0-1.6,0h-0.2c-0.7,0-1.1,0-1.6-0.2     c-1.1-0.2-2.2-0.2-3.4-0.4c-11.3-1.4-20.9-4.1-29.5-7.9c-8.6-4.1-16.4-8.8-23.4-14.4c-7-5.6-13-11.9-18.5-19.1     c-5.4-7.2-9.9-15.1-13.7-24.1c-3.6-8.8-6.1-18.9-7-30.6l0,0c0-0.7,0-1.3,0-2v-0.2c0-0.4,0-0.7,0-1.1l0,0c0-0.7,0-1.6,0-2.2v-0.2     c0-1.6,0-3.4,0-5v-0.2c0-0.9,0-1.8,0-2.7h0.2v-0.2c0-0.5,0-0.7,0-1.1v-0.2c0-0.5,0-1.1,0-1.6h0.2v-0.2c0-0.2,0-0.5,0-0.9     c1.4-11.2,3.8-21.4,7.4-30.2c3.6-8.8,8.3-16.9,13.7-23.8c5.4-7.2,11.5-13.5,18.5-19.1c7-5.6,14.9-10.4,23.6-14.2     c8.8-3.8,18.5-6.3,29.5-7.7c1.6-0.2,2.9-0.4,4.3-0.4v-0.2c0.5,0,0.9,0,1.6,0h0.2c0.2,0,0.5,0,0.9,0h0.2v-0.2c0.7,0,1.4,0,2,0h0.2     c2.2,0,4.7,0,7,0l0,0c0.9,0,1.6,0,2.5,0h0.2c0.7,0,1.4,0,2,0l0,0c11.5,1.1,21.6,3.4,30.4,7c8.8,3.6,16.9,8.1,24.1,13.5     c7.2,5.4,13.5,11.5,19.1,18.4c5.6,7,10.3,14.8,14.2,23.4c3.8,8.5,6.5,18.4,8.1,29.5c0.2,1.8,0.5,3.4,0.5,5.2     c0.2,0.4,0.2,1.1,0.2,1.8v0.2c0,0.5,0,0.9,0,1.6v0.2c0.2,2.5,0.2,5,0,7.7l0,0c0,0.5,0,1.1,0,1.6v0.2v0.2c0,0.9,0,1.4-0.2,1.8     c-0.5,5.4-1.1,10.6-2.2,15.3c-2.5,10.1-5.8,19.1-10.3,27.2c-4.5,8.1-9.7,15.3-15.8,21.8v0.2c12.4,0.2,24.8,0.4,37.4,0.4     c3.1,0,6.3-0.2,9-0.4c4.7-7.9,8.8-16.4,11.9-25.7c3.1-9.2,5.6-19.6,7-30.6c0.2-1.8,0.5-3.6,0.5-5.6v-0.2c0-0.7,0-1.3,0-1.8h0.2     v-0.2c0-0.4,0-0.7,0-1.1v-0.2c0-0.7,0-1.3,0-2v-0.2c0-0.9,0-1.8,0-2.7h0.2v-0.2c0-0.9,0-2,0-2.9l0,0c0-1.4,0-2.5,0-3.8v-0.2     c0-0.9,0-1.8,0-2.7l0,0c0-0.7,0-1.3,0-1.8v-0.2c-0.2-0.9-0.2-2-0.2-3.2l0,0c0-0.4,0-1.1,0-1.6c-1.1-9.9-2.9-18.9-5.6-27.2     C692.5,1112.5,688.6,1103.7,684.1,1095.6z"/>
		</g>
	</g>
</g>
<g transform="matrix( 0.40423583984375, 0, 0, 0.40423583984375, -143.4,-75.9) ">
	<g>
		<g id="Layer0_0_MEMBER_0_MEMBER_0_FILL">
			<path fill="#808384" d="M423.3,1291.4c0,2.9,1.1,5.8,3.3,8c2.2,2.2,4.7,3.3,8,3.3c2.9,0,5.5-1.1,7.7-3.3s3.3-4.7,3.3-8     c0-2.9-1.1-5.8-3.3-8c-2.2-2.2-4.7-2.9-7.7-2.9c-2.9,0-5.8,1.1-8,2.9C424.4,1285.6,423.3,1288.1,423.3,1291.4 M427.7,1298.4     c-1.8-1.8-2.9-4-2.9-6.9c0-2.6,1.1-4.7,2.9-6.9c1.8-1.8,4-2.9,6.9-2.9c2.6,0,4.7,1.1,6.6,2.9c1.8,1.8,2.9,4.4,2.9,6.9     s-1.1,5.1-2.9,6.9c-1.8,1.8-4,2.9-6.6,2.9C431.7,1300.9,429.5,1300.2,427.7,1298.4 M429.8,1285.2v12h2.2v-4.7h1.8     c1.1,0,1.8,0,2.6,0.4c0.7,0.4,1.1,1.5,1.1,2.9v1.1v0.4l0,0h2.2l0,0v-2.6c0-0.4-0.4-1.1-0.7-1.8c-0.4-0.7-1.1-1.1-2.2-1.1     c0.7-0.4,1.5-0.4,1.8-0.7c0.7-0.4,1.1-1.5,1.1-2.6c0-1.5-0.7-2.6-1.8-2.9c-0.7-0.4-1.8-0.4-3.3-0.4L429.8,1285.2 M432,1286.7h1.8     c1.1,0,2.2,0,2.6,0.4c0.4,0.4,0.7,0.7,0.7,1.8c0,1.1-0.4,1.5-1.1,2.2c-0.4,0-1.1,0-2.2,0h-2.2v-4.4H432z"/>
		</g>
	</g>
</g>
<g transform="matrix( 1, 0, 0, 1, 712.05,-1454.35) ">
	<g>
		<g id="Layer0_0_MEMBER_1_FILL">
			<path fill="#232020" d="M-159.1,1852C-159.1,1851.7-159.1,1851.7-159.1,1852c-1.1-12.1-7.6-18.9-19.2-20h-0.3c-1.1,0-2.3,0-3.4,0     h-0.3c-11,1.4-17.2,7.6-18.9,18.6c0,0.8,0,1.7,0,2.5v0.3c0,0.8,0,1.7,0,2.5v0.3c0.6,12.7,6.8,19.8,18.6,21.2l0,0c2,0,4,0,5.9,0     h0.3v-0.3c10.4-1.7,16.1-8.2,17.5-19.2v-0.3v-0.3c0-0.6,0-1.4,0-2h0.3v-0.3c0-0.3,0-0.8,0-1.1l0,0     C-159.1,1853.1-159.1,1852.6-159.1,1852 M-178.9,1837.6c2.3,0,4,0.3,5.4,1.4c4.5,2.5,6.8,7.1,7.6,13.6c0.3,1.1,0.3,2.3,0,3.7l0,0     c-0.6,6.2-2.8,10.4-6.8,13.3c-2.5,1.7-5.6,2.3-9.6,1.4c-8.8-1.4-12.7-7.6-12.4-18.4C-194.1,1843-188.7,1837.9-178.9,1837.6      M-239.6,1852.6C-239.6,1852.6-239.6,1852.8-239.6,1852.6c0,1.1,0,2,0,2.8v0.3c0.8,12.4,7.3,19.8,19.2,21.5l0,0     c2.8,0,5.6,0,8.5,0h0.3v-0.3c2.5,0,4.2-0.6,5.1-2c0.3-0.3,0.3-0.8,0.3-1.1c0-0.3,0-0.3,0-0.6l0,0c0-0.6,0-1.4,0-2     c0-0.3,0-0.8-0.3-1.1c-0.3-0.6-0.8-0.6-2,0c-3.4,1.4-7.3,1.7-11.6,0.8c-8.5-1.7-12.7-7.9-12.7-18.4c1.1-10.2,7.3-15,18.4-15     c2.3,0,4.2,0.3,5.9,1.1c0.6,0.3,1.1,0.6,1.7,0.8c0.3-2,0.3-4,0.6-5.9v-0.3c-2-1.1-4.8-1.7-7.9-2h-0.3h-0.3c-1.1,0-2.3,0-3.4,0     h-0.3c-12.4,1.1-19.5,7.6-21.5,19.5C-239.6,1851.7-239.6,1852-239.6,1852.6z"/>
			<path fill="#232020" d="M-102,1832.5C-102,1832.5-102.3,1832.5-102,1832.5c-3.7,0-7.1,0-10.4,0c-0.6,2-1.4,4-2,5.9     c-3.7,10.2-7.6,20.3-11.3,30.2c-0.8-2-1.7-4-2.5-6.2c-3.7-10.2-7.6-20.3-11.6-30.2h-0.3c-3.4,0-6.8,0-9.9,0c0,13.8,0,27.7,0,41.5     c0,0.8,0,1.7,0,2.5c2,0,4,0,5.9,0h0.3c0-12.4,0-24.9,0-37.3v-0.3c4,9.9,7.6,20,11.6,29.9c0.8,2.5,2,5.1,3.1,7.6c2,0,4,0,5.9,0     h0.3c4-9.9,7.6-20.1,11.6-30.2c0.8-2.3,1.7-4.8,2.5-7.3v-0.3c0.6-0.3,0.8,0.6,0.8,2.3c-0.3,11.9-0.3,23.4-0.3,35.3c2,0,4,0,5.9,0     h0.3c0-0.8,0-1.7,0-2.5C-102,1860.2-102,1846.4-102,1832.5 M-445.7,1851.2L-445.7,1851.2c-1.1-12.1-7.9-18.6-20-19.5h-0.3     c-1.1,0-2.5,0-3.7,0h-0.3c-11.3,1.1-18.1,6.8-19.8,17.5c0,0.6,0,1.4,0,2v0.3c0,2,0,4,0,5.9v0.3c1.1,11.3,7.1,17.5,17.8,19.2l0,0     c2.5,0,5.1,0,7.6,0h0.3v-0.3c11-1.4,16.9-7.9,18.1-18.9v-0.3v-0.3c0-0.6,0-1.4,0-2h0.3v-0.3c0-0.6,0-1.1,0-1.7l0,0     C-445.7,1852.8-445.7,1852-445.7,1851.2 M-468.9,1840.4C-468.9,1840.4-468.6,1840.4-468.9,1840.4     C-468.6,1840.4-468.6,1840.4-468.9,1840.4c0.8-0.3,1.7-0.3,2.3,0l0,0c5.1,1.1,8.2,4.5,8.8,10.2c0.8,8.5-1.1,13.8-6.2,16.9     c-1.1,0.6-2.5,0.8-4.5,0.3c-6.8-1.4-9.6-6.8-9-16.1C-477.1,1845.5-474.2,1841.8-468.9,1840.4 M-257.6,1876.3L-257.6,1876.3     c3.4,0.3,7.1,0.3,10.4,0.3h0.3c0-3.4,0-6.8,0-9.9v-0.3h-0.3c-3.4,0-7.1,0-10.4,0C-257.6,1869.5-257.6,1872.9-257.6,1876.3z"/>
			<path fill="#232020" d="M-494.9,1852C-494.9,1851.7-494.9,1851.7-494.9,1852c-1.1-12.4-8.2-18.6-20.9-19.2h-0.3     c-0.8,0-1.4,0-1.7-0.3h-0.3c-6.2,0-12.7,0-18.9,0c0,13.8,0,27.7,0,41.5c0,0.8,0,1.7,0,2.5c6.2,0,12.1,0,18.4,0h0.3v-0.3     c0.6,0,1.1,0,1.7,0h0.3c13-0.6,20.3-7.3,21.5-19.8v-0.3v-0.3C-494.9,1854.5-494.9,1853.4-494.9,1852 M-512.9,1842.7     c3.1,1.7,4.8,4.5,5.4,8.5c1.4,12.1-4.5,17.8-17.5,16.4v-0.3c0-8.8,0-17.5,0-26.3c0.3,0,0.6,0,0.8,0h0.3v-0.3c1.4,0,2.5,0,4,0l0,0     C-516.9,1841.3-514.6,1841.8-512.9,1842.7 M-383.9,1832.5C-383.9,1832.5-384.2,1832.5-383.9,1832.5c-6.2,0-11.9,0-17.8,0l0,0     c-3.1,9.9-6.2,19.5-9.6,29.1l0,0c-3.1-9.6-6.2-19.5-9.3-29.1h-0.3c-5.9,0-12.1,0-18.1,0c0,13.8,0,27.7,0,41.5c0,0.8,0,1.7,0,2.5     c3.7,0,7.3,0,11,0h0.3c0-0.8,0-2,0-2.8v-0.3l0,0c0-2.8,0-5.4,0-8.2v-0.3c0-2.5,0-5.1,0-7.3v-0.3c0-2.5,0-5.1,0-7.6v-0.3     c0-2.3,0-4.2,0-6.5c3.4,10.4,6.8,20.9,10.2,31.3c0.3,0.6,0.3,1.1,0.6,2c3.7,0,7.1,0,10.7,0h0.3c3.4-10.4,7.1-20.6,10.4-31.1     c0.3-0.6,0.3-1.1,0.6-1.7v-0.3v-0.3c0.6-0.3,0.6,0.3,0.6,2c0,2,0,3.7,0,5.6v0.3c0,3.7,0,7.1-0.3,10.2v0.3c0,5.1,0,10.2,0,15h0.3     c3.7,0,7.6,0,11.3,0c0-0.8,0-1.7,0-2.5C-383.9,1860.2-383.9,1846.4-383.9,1832.5 M-344.6,1876.6L-344.6,1876.6     c4.5,0,8.5,0,12.7,0c-1.7-4.8-3.4-9.6-5.4-14.1c-4-9.9-7.6-20.1-11.6-29.9h-0.3c-4.8,0-9.6,0-14.4,0c-1.7,4.5-3.1,9-5.1,13.6     c-4,9.9-7.6,20.1-11.6,29.9c1.4,0.6,3.4,0.8,5.6,0.6c2,0,4.2-0.3,6.2-0.3c1.4-2.8,2.5-5.9,3.7-9.3l0,0v-0.3c5.4,0,10.7,0,16.4,0     l0,0l0,0C-347.2,1870.4-346,1873.5-344.6,1876.6 M-356.2,1841.6C-356.2,1841.8-356.2,1841.8-356.2,1841.6     c1.7,5.6,3.4,11.3,5.1,16.9c-2.3,0-4.8,0-7.1,0.3c-1.7,0-2.8-0.3-3.4-0.8c1.1-2.5,2-5.4,2.8-8.2v-0.3h-0.3     c-0.3,0-0.3-0.3-0.3-0.6c0.3-0.3,0.3-0.3,0.6,0l0,0l0,0C-357.9,1846.4-357.1,1843.8-356.2,1841.6 M-315.3,1832.5     C-315.3,1832.5-315.5,1832.5-315.3,1832.5c-4.2,0-7.9,0-11.9,0c0,0.8,0,1.7,0,2.5c0,13.8,0,27.7,0,41.5h0.3c4,0,7.6,0,11.6,0     c0-0.8,0-1.7,0-2.5C-315.3,1860.2-315.3,1846.4-315.3,1832.5 M-266.1,1835.1c0-0.8,0-1.7,0-2.5c-3.4,0-7.1,0-10.4,0h-0.3     c0,3.4,0,6.8,0,10.2v0.3v0.3c0,6.5,0,12.7-0.3,18.9c-0.3-0.6-0.6-1.1-0.8-1.7c-4.5-9-9.3-18.4-13.8-27.7h-0.3c-5.1,0-9.9,0-15,0     c0,13.8,0,27.7,0,41.5c0,0.8,0,1.7,0,2.5c3.7,0,7.1,0,10.7,0h0.3c0-2.5,0-5.1,0-7.3v-0.3l0,0c0-1.4,0-3.1,0-4.5v-0.3     c0-1.7,0-3.4,0-4.8v-0.3c0-3.1,0-6.2,0-9.3l0,0c0-1.1,0-2,0-3.1c0.3,0,0.3,0,0.3,0l0,0c4.5,9.3,9.3,18.4,14.1,27.7     c0.3,0.6,0.6,1.4,1.1,2.3c4.8,0,9.6,0,14.4,0h0.3C-266.1,1862.7-266.1,1848.9-266.1,1835.1z"/>
		</g>
	</g>
</g>
</svg>